<svg xmlns="http://www.w3.org/2000/svg" viewBox="0 0 225.82 81.5"><defs><style>.cls-1{fill:#e6542c;}.cls-2{fill:#090909;}</style></defs><g id="Layer_2" data-name="Layer 2"><g id="Layer_1-2" data-name="Layer 1"><path class="cls-1" d="M123.34,0a4,4,0,0,0-.08,3.47c.34.85.63,1.72,1,2.56a18.65,18.65,0,0,1,1.53,7.09,2.7,2.7,0,0,0,.39,1.51,28.19,28.19,0,0,1,.59-5.31A11.19,11.19,0,0,1,128.6,4.6c.39.21.31.53.3.77a10.54,10.54,0,0,0,1.69,5.77A12.34,12.34,0,0,1,132,21.37a11,11,0,0,1-1.62,2.95l7.81-1.54a13.64,13.64,0,0,1-3.48,5.9c-.25.25-.61.16-.92.16H112.54a1.53,1.53,0,0,1-1.31-.64,17.33,17.33,0,0,1-3.07-5.42l7.41,1.57c-2.95-3.71-2.7-7.49-1.19-11.4.49-1.26.88-2.56,1.29-3.85a6.13,6.13,0,0,0,.08-3.29c1.53.44,2.23,2.1,2.69,6.35.45.12.39-.32.48-.51a13.05,13.05,0,0,0,1.5-6A6.87,6.87,0,0,1,122.86,0Z"/><path class="cls-2" d="M48.78,68.93c0-3.44-.22-6.89,0-10.31a13.67,13.67,0,0,1,8.7-12.16c5.32-2.27,10.38-1.49,15,2.1a11.55,11.55,0,0,1,1,.83c1.14,1.13,1.14,1.14,2.21,0a14.58,14.58,0,0,1,20.46,0A14.43,14.43,0,0,1,100.5,60c0,6.31,0,12.63,0,18.95,0,.9-.22,1.16-1.12,1.1a41.5,41.5,0,0,0-4.32,0c-.86.05-1-.24-1-1.06,0-6.28,0-12.56,0-18.83,0-4.88-3.47-8.5-8.14-8.5a8.15,8.15,0,0,0-8.09,8.44c0,6.28,0,12.56,0,18.83,0,.91-.23,1.17-1.13,1.12-1.43-.08-2.88-.07-4.31,0-.79,0-1-.19-1-1q.06-9.48,0-18.95a8.12,8.12,0,0,0-9.29-8.36,8,8,0,0,0-6.91,7.8c0,6.44,0,12.88,0,19.31,0,.92-.18,1.26-1.16,1.19a43.84,43.84,0,0,0-4.44,0c-.75,0-.93-.22-.92-.95,0-3.39,0-6.79,0-10.19Z"/><path class="cls-2" d="M0,60A21.61,21.61,0,1,1,21.72,81.5,21.63,21.63,0,0,1,0,60ZM21.59,45.24A14.68,14.68,0,1,0,36.28,59.88,14.67,14.67,0,0,0,21.59,45.24Z"/><path class="cls-2" d="M184.09,57c0,7.31,0,14.62,0,21.94,0,.94-.22,1.24-1.18,1.18a34.62,34.62,0,0,0-4.2,0c-.89.05-1.23-.19-1.13-1.11,0-.39.29-.95-.2-1.18s-.81.26-1.15.5a18.12,18.12,0,1,1-.19-29.94c.45.3,1,.94,1.38.72s.18-1,.18-1.54c0-4.27,0-8.55,0-12.83,0-.84.22-1.09,1.06-1a41.5,41.5,0,0,0,4.32,0c.91-.06,1.12.21,1.11,1.11C184.08,42.16,184.09,49.55,184.09,57ZM166,51.78A11.62,11.62,0,0,0,154.3,63.26a11.64,11.64,0,1,0,23.27.16A11.52,11.52,0,0,0,166,51.78Z"/><path class="cls-2" d="M142.31,70.82c0,2.68-.05,5.36,0,8,0,1-.29,1.28-1.26,1.22a31,31,0,0,0-4.2,0c-1,.07-1.17-.34-1.06-1.17.05-.37.25-.87-.13-1.11s-.81.18-1.16.41a18.1,18.1,0,0,1-24.07-2.9c-4.87-5.38-5.75-14.1-2.32-20.48a18.17,18.17,0,0,1,25.3-7c5.77,3.51,8.63,8.76,8.86,15.45C142.38,65.78,142.31,68.3,142.31,70.82Zm-18.15-19a11.52,11.52,0,0,0-11.63,11.8,11.64,11.64,0,1,0,11.63-11.8Z"/><path class="cls-2" d="M225.8,70.75c0,2.8,0,5.59,0,8.39,0,.74-.2,1-.94.92-1.56,0-3.12-.06-4.68,0-.77,0-.94-.22-.92-.94,0-.38.38-.93-.35-1.21s-.86.26-1.19.5a18.21,18.21,0,0,1-20.55-.21,18.12,18.12,0,0,1,19-30.76c6.31,3.47,9.36,9,9.57,16.12C225.86,66,225.8,68.35,225.8,70.75Zm-18.15-19A11.53,11.53,0,0,0,196,63.31a11.69,11.69,0,0,0,11.65,11.74A11.83,11.83,0,0,0,219.3,63.48,11.67,11.67,0,0,0,207.65,51.77Z"/><path class="cls-1" d="M123.1,35.17c-3.4,0-6.8,0-10.19,0-.83,0-1.29-.1-1.16-1.08s-.41-2.27.2-2.89,1.9-.19,2.88-.19c6.2,0,12.39,0,18.59,0,.86,0,1.38.1,1.22,1.14s.43,2.28-.25,2.85-1.83.17-2.78.17C128.77,35.18,125.94,35.17,123.1,35.17Z"/><path class="cls-1" d="M123.1,37.1c2,0,4,0,6,0,1,0,1.12.36.87,1.2a5.87,5.87,0,0,1-2.68,3.38,8.11,8.11,0,0,1-8.8-.44A5.43,5.43,0,0,1,117,39.65c-.42-.73-1-1.59-.61-2.33.28-.55,1.25-.19,1.9-.21C119.9,37.08,121.5,37.1,123.1,37.1Z"/></g></g></svg>